<svg width="23" height="28" viewBox="0 0 23 28" fill="none" xmlns="http://www.w3.org/2000/svg">
<path d="M11.5 28C13.0813 28 14.375 26.7077 14.375 25.1282H8.625C8.625 26.7077 9.91875 28 11.5 28ZM20.125 19.3846V12.2051C20.125 7.79692 17.7819 4.10667 13.6562 3.13026V2.15385C13.6562 0.962051 12.6931 0 11.5 0C10.3069 0 9.34375 0.962051 9.34375 2.15385V3.13026C5.2325 4.10667 2.875 7.78256 2.875 12.2051V19.3846L0 22.2564V23.6923H23V22.2564L20.125 19.3846ZM17.25 20.8205H5.75V12.2051C5.75 8.6441 7.92062 5.74359 11.5 5.74359C15.0794 5.74359 17.25 8.6441 17.25 12.2051V20.8205Z" fill="white"/>
<circle cx="17.5" cy="6.5" r="3.5" fill="#FF3000"/>
</svg>
