<svg width="27" height="27" viewBox="0 0 27 27" fill="none" xmlns="http://www.w3.org/2000/svg">
<path d="M7.875 19.1398L12.8396 19.1229L23.6756 8.39045C24.1009 7.9652 24.3349 7.40045 24.3349 6.7997C24.3349 6.19895 24.1009 5.6342 23.6756 5.20895L21.8914 3.4247C21.0409 2.5742 19.557 2.5787 18.7133 3.42132L7.875 14.1561V19.1398ZM20.3006 5.01545L22.0883 6.79632L20.2916 8.57607L18.5074 6.79295L20.3006 5.01545ZM10.125 15.0943L16.9087 8.3747L18.693 10.1589L11.9104 16.8763L10.125 16.8819V15.0943Z" fill="white"/>
<path d="M5.625 23.625H21.375C22.6159 23.625 23.625 22.6159 23.625 21.375V11.6235L21.375 13.8735V21.375H9.17775C9.1485 21.375 9.11813 21.3862 9.08888 21.3862C9.05175 21.3862 9.01463 21.3761 8.97638 21.375H5.625V5.625H13.3279L15.5779 3.375H5.625C4.38412 3.375 3.375 4.38412 3.375 5.625V21.375C3.375 22.6159 4.38412 23.625 5.625 23.625Z" fill="white"/>
</svg>
