<svg width="21" height="19" viewBox="0 0 21 19" fill="none" xmlns="http://www.w3.org/2000/svg">
<path fill-rule="evenodd" clip-rule="evenodd" d="M0 6.92857C0 6.41574 0.421379 6 0.941176 6H7.05882C7.57862 6 8 6.41574 8 6.92857V18.0714C8 18.5843 7.57862 19 7.05882 19H0.941176C0.421379 19 0 18.5843 0 18.0714V6.92857ZM1.88235 7.85714V17.1429H6.11765V7.85714H1.88235Z" fill="#FEFEFE"/>
<path fill-rule="evenodd" clip-rule="evenodd" d="M6 0.95C6 0.425329 6.42138 0 6.94118 0H13.0588C13.5786 0 14 0.425329 14 0.95V18.05C14 18.5747 13.5786 19 13.0588 19H6.94118C6.42138 19 6 18.5747 6 18.05V0.95ZM7.88235 1.9V17.1H12.1176V1.9H7.88235Z" fill="#FEFEFE"/>
<path fill-rule="evenodd" clip-rule="evenodd" d="M13 10.9C13 10.4029 13.4214 10 13.9412 10H20.0588C20.5786 10 21 10.4029 21 10.9V18.1C21 18.5971 20.5786 19 20.0588 19H13.9412C13.4214 19 13 18.5971 13 18.1V10.9ZM14.8824 11.8V17.2H19.1176V11.8H14.8824Z" fill="#FEFEFE"/>
</svg>
