<svg width="18" height="19" viewBox="0 0 18 19" fill="none" xmlns="http://www.w3.org/2000/svg">
<path d="M6.75051 0.0011875V1.78244C8.0066 1.77982 9.25075 2.03963 10.4112 2.54692C11.5717 3.0542 12.6256 3.79892 13.5122 4.73814C14.4014 5.67434 15.1066 6.78681 15.5871 8.0116C16.0677 9.23639 16.3142 10.5494 16.3125 11.875H18.0001C18.0001 5.31645 12.9631 0 6.74939 0L6.75051 0.0011875Z" fill="white"/>
<path d="M6.7504 3.56348V5.34473C8.40312 5.34473 9.95684 6.02398 11.1258 7.2578C12.2947 8.49161 12.9383 10.1316 12.9383 11.876H14.6259C14.6259 9.67138 13.7961 7.55706 12.3192 5.99816C10.8423 4.43926 8.8391 3.56348 6.7504 3.56348ZM8.438 7.12599L7.31293 8.31349L3.3752 9.50099L0 17.2198L0.445526 17.69L4.53852 13.3699C4.4744 13.1174 4.491 12.8496 4.58577 12.6081C4.68054 12.3665 4.84816 12.1648 5.06265 12.034C5.27714 11.9033 5.5265 11.851 5.77205 11.8851C6.01761 11.9192 6.24564 12.0379 6.42077 12.2227C6.5959 12.4076 6.70835 12.6483 6.74067 12.9075C6.77299 13.1666 6.72338 13.4298 6.59954 13.6562C6.47569 13.8826 6.28453 14.0595 6.0557 14.1596C5.82687 14.2596 5.57317 14.2771 5.33394 14.2094L1.24095 18.5296L1.68648 18.9998L8.99941 15.4373L10.1245 11.2811L11.2495 10.0936L8.43688 7.1248L8.438 7.12599Z" fill="white"/>
</svg>
