<svg width="20" height="26" viewBox="0 0 20 26" fill="none" xmlns="http://www.w3.org/2000/svg">
<path d="M12.7272 17.2726H7.27268C6.54937 17.2726 5.85567 17.56 5.34421 18.0714C4.83275 18.5829 4.54541 19.2766 4.54541 19.9999V21.8181H6.36359V19.9999C6.36359 19.7588 6.45937 19.5276 6.62986 19.3571C6.80035 19.1866 7.03158 19.0908 7.27268 19.0908H12.7272C12.9683 19.0908 13.1996 19.1866 13.3701 19.3571C13.5405 19.5276 13.6363 19.7588 13.6363 19.9999V21.8181H15.4545V19.9999C15.4545 19.2766 15.1672 18.5829 14.6557 18.0714C14.1442 17.56 13.4505 17.2726 12.7272 17.2726ZM9.99996 16.3635C10.7192 16.3635 11.4222 16.1503 12.0202 15.7507C12.6182 15.3511 13.0843 14.7832 13.3595 14.1188C13.6347 13.4543 13.7068 12.7232 13.5664 12.0178C13.4261 11.3124 13.0798 10.6644 12.5713 10.1559C12.0627 9.64733 11.4148 9.301 10.7094 9.16069C10.004 9.02038 9.27284 9.0924 8.60838 9.36762C7.94392 9.64285 7.376 10.1089 6.97643 10.7069C6.57686 11.3049 6.36359 12.008 6.36359 12.7272C6.36359 13.6916 6.74671 14.6165 7.42866 15.2985C8.11061 15.9804 9.03553 16.3635 9.99996 16.3635ZM9.99996 10.909C10.3596 10.909 10.7111 11.0156 11.0101 11.2154C11.3091 11.4152 11.5421 11.6992 11.6797 12.0314C11.8174 12.3636 11.8534 12.7292 11.7832 13.0819C11.713 13.4346 11.5399 13.7586 11.2856 14.0128C11.0313 14.2671 10.7074 14.4403 10.3547 14.5104C10.002 14.5806 9.6364 14.5446 9.30417 14.407C8.97194 14.2694 8.68798 14.0363 8.48819 13.7373C8.28841 13.4383 8.18177 13.0868 8.18177 12.7272C8.18177 12.245 8.37333 11.7825 8.71431 11.4415C9.05528 11.1006 9.51774 10.909 9.99996 10.909Z" fill="white"/>
<path d="M18.1818 2.72727H15.4545V1.81818C15.4545 1.33597 15.263 0.873508 14.922 0.532533C14.581 0.191558 14.1186 0 13.6364 0H6.36364C5.88142 0 5.41896 0.191558 5.07799 0.532533C4.73701 0.873508 4.54545 1.33597 4.54545 1.81818V2.72727H1.81818C1.33597 2.72727 0.873508 2.91883 0.532533 3.25981C0.191558 3.60078 0 4.06324 0 4.54545V23.6364C0 24.1186 0.191558 24.581 0.532533 24.922C0.873508 25.263 1.33597 25.4545 1.81818 25.4545H18.1818C18.664 25.4545 19.1265 25.263 19.4675 24.922C19.8084 24.581 20 24.1186 20 23.6364V4.54545C20 4.06324 19.8084 3.60078 19.4675 3.25981C19.1265 2.91883 18.664 2.72727 18.1818 2.72727ZM6.36364 1.81818H13.6364V5.45455H6.36364V1.81818ZM18.1818 23.6364H1.81818V4.54545H4.54545V7.27273H15.4545V4.54545H18.1818V23.6364Z" fill="white"/>
</svg>
