<svg width="34" height="34" viewBox="0 0 34 34" fill="none" xmlns="http://www.w3.org/2000/svg">
<path d="M17 31.1667C9.18 31.1582 2.84183 24.82 2.83333 17V16.7167C2.98917 8.93208 9.39958 2.73133 17.1842 2.83333C24.9716 2.93817 31.2148 9.30608 31.1638 17.0921C31.1128 24.8795 24.7874 31.1667 17 31.1667ZM16.9773 28.3333H17C20.0048 28.3303 22.8854 27.1342 25.0086 25.0079C27.1317 22.8816 28.3235 19.9991 28.322 16.9943C28.3205 13.9895 27.1258 11.1083 25.0005 8.98412C22.8753 6.85994 19.9935 5.66667 16.9887 5.66667C13.9839 5.66667 11.102 6.85994 8.97679 8.98412C6.85154 11.1083 5.65684 13.9895 5.65533 16.9943C5.65383 19.9991 6.84566 22.8816 8.96878 25.0079C11.0919 27.1342 13.9725 28.3303 16.9773 28.3333V28.3333ZM18.4167 25.5H15.5833V22.6667H18.4167V25.5ZM18.4167 21.25H15.5833C15.5613 20.3441 15.7823 19.4487 16.2232 18.657C16.6642 17.8653 17.309 17.2061 18.0908 16.7478C19.0258 16.031 19.8333 15.4133 19.8333 14.1667C19.8333 13.4152 19.5348 12.6945 19.0035 12.1632C18.4721 11.6318 17.7514 11.3333 17 11.3333C16.2486 11.3333 15.5279 11.6318 14.9965 12.1632C14.4652 12.6945 14.1667 13.4152 14.1667 14.1667H11.3333V14.0392C11.3502 12.5363 11.9635 11.1017 13.0381 10.0509C14.1128 9.00015 15.5609 8.41934 17.0637 8.43625C18.5666 8.45316 20.0013 9.06639 21.052 10.1411C22.1028 11.2157 22.6836 12.6638 22.6667 14.1667C22.6166 14.9205 22.3907 15.6521 22.0069 16.3028C21.6231 16.9535 21.0922 17.5052 20.4567 17.9137C19.882 18.2745 19.3988 18.7634 19.0448 19.3423C18.6909 19.9211 18.4759 20.5741 18.4167 21.25V21.25Z" fill="white"/>
</svg>
