<svg width="21" height="20" viewBox="0 0 21 20" fill="none" xmlns="http://www.w3.org/2000/svg">
<path fill-rule="evenodd" clip-rule="evenodd" d="M2.47616 7.77788C2.47616 4.70959 4.96349 2.22225 8.03178 2.22225C11.1001 2.22225 13.5874 4.70959 13.5874 7.77788C13.5874 10.8462 11.1001 13.3335 8.03178 13.3335C4.96349 13.3335 2.47616 10.8462 2.47616 7.77788ZM8.03178 0C3.73618 0 0.253906 3.48227 0.253906 7.77788C0.253906 12.0735 3.73618 15.5558 8.03178 15.5558C9.77871 15.5558 11.3911 14.9798 12.6895 14.0075L18.3566 19.6746C18.7905 20.1085 19.494 20.1085 19.928 19.6746C20.3619 19.2407 20.3619 18.5371 19.928 18.1032L14.261 12.4362C15.2336 11.1377 15.8097 9.52507 15.8097 7.77788C15.8097 3.48227 12.3274 0 8.03178 0Z" fill="white" fill-opacity="0.6"/>
</svg>
