<svg width="18" height="18" viewBox="0 0 18 18" fill="none" xmlns="http://www.w3.org/2000/svg">
<mask id="path-1-inside-1_206_2951" fill="white">
<path fill-rule="evenodd" clip-rule="evenodd" d="M2.49231 0H2.42308C2.106 0 1.83323 1.03154e-08 1.59231 0.0567649C1.21934 0.145879 0.878331 0.3365 0.607058 0.607508C0.335785 0.878516 0.144841 1.21933 0.0553846 1.59219C-5.15809e-08 1.83309 0 2.10445 0 2.42289V5.88416C0 6.20122 1.03162e-08 6.47396 0.0567692 6.71487C0.14589 7.0878 0.336526 7.42879 0.607555 7.70004C0.878583 7.97129 1.21942 8.16222 1.59231 8.25167C1.83323 8.30705 2.10462 8.30705 2.42308 8.30705H5.88462C6.20169 8.30705 6.47446 8.30705 6.71538 8.25029C7.08835 8.16117 7.42936 7.97055 7.70063 7.69955C7.97191 7.42854 8.16285 7.08772 8.25231 6.71487C8.30769 6.47396 8.30769 6.2026 8.30769 5.88416V2.42289C8.30769 2.10584 8.30769 1.83309 8.25092 1.59219C8.1618 1.21925 7.97117 0.878263 7.70014 0.607011C7.42911 0.335759 7.08827 0.14483 6.71538 0.0553803C6.47446 -5.1577e-08 6.20308 0 5.88462 0H2.49231ZM1.91492 1.40389C1.97446 1.39005 2.06723 1.38451 2.49231 1.38451H5.81538C6.24185 1.38451 6.33323 1.38866 6.39277 1.40389C6.51715 1.43363 6.63086 1.49724 6.72129 1.58767C6.81172 1.67809 6.87533 1.79179 6.90508 1.91616C6.91892 1.97431 6.92308 2.06569 6.92308 2.49212V5.81494C6.92308 6.24137 6.91892 6.33274 6.90369 6.39228C6.87395 6.51665 6.81033 6.63035 6.7199 6.72077C6.62948 6.81119 6.51576 6.8748 6.39139 6.90455C6.33462 6.91701 6.24323 6.92254 5.81538 6.92254H2.49231C2.06585 6.92254 1.97446 6.91839 1.91492 6.90316C1.79054 6.87342 1.67683 6.80981 1.5864 6.71939C1.49597 6.62896 1.43236 6.51526 1.40262 6.39089C1.39015 6.33413 1.38462 6.24275 1.38462 5.81494V2.49212C1.38462 2.06569 1.38877 1.97431 1.404 1.91478C1.43374 1.79041 1.49736 1.6767 1.58779 1.58628C1.67822 1.49586 1.79193 1.43225 1.91631 1.40251L1.91492 1.40389ZM12.1846 0H12.1154C11.7983 0 11.5255 1.03154e-08 11.2846 0.0567649C10.9116 0.145879 10.5706 0.3365 10.2994 0.607508C10.0281 0.878516 9.83715 1.21933 9.74769 1.59219C9.69231 1.83309 9.69231 2.10445 9.69231 2.42289V5.88416C9.69231 6.20122 9.69231 6.47396 9.74908 6.71487C9.8382 7.0878 10.0288 7.42879 10.2999 7.70004C10.5709 7.97129 10.9117 8.16222 11.2846 8.25167C11.5255 8.30705 11.7969 8.30705 12.1154 8.30705H15.5769C15.894 8.30705 16.1668 8.30705 16.4077 8.25029C16.7807 8.16117 17.1217 7.97055 17.3929 7.69955C17.6642 7.42854 17.8552 7.08772 17.9446 6.71487C18 6.47396 18 6.2026 18 5.88416V2.42289C18 2.10584 18 1.83309 17.9432 1.59219C17.8541 1.21925 17.6635 0.878263 17.3924 0.607011C17.1214 0.335759 16.7806 0.14483 16.4077 0.0553803C16.1668 -5.1577e-08 15.8954 0 15.5769 0H12.1846ZM11.6072 1.40389C11.6668 1.39005 11.7595 1.38451 12.1846 1.38451H15.5077C15.9342 1.38451 16.0255 1.38866 16.0851 1.40389C16.2095 1.43363 16.3232 1.49724 16.4136 1.58767C16.504 1.67809 16.5676 1.79179 16.5974 1.91616C16.6112 1.97431 16.6154 2.06569 16.6154 2.49212V5.81494C16.6154 6.24137 16.6098 6.33274 16.596 6.39228C16.5663 6.51665 16.5026 6.63035 16.4122 6.72077C16.3218 6.81119 16.2081 6.8748 16.0837 6.90455C16.0255 6.91839 15.9342 6.92254 15.5077 6.92254H12.1846C11.7582 6.92254 11.6668 6.91839 11.6072 6.90316C11.4829 6.87342 11.3691 6.80981 11.2787 6.71939C11.1883 6.62896 11.1247 6.51526 11.0949 6.39089C11.0825 6.33413 11.0769 6.24275 11.0769 5.81494V2.49212C11.0769 2.06569 11.0811 1.97431 11.0963 1.91478C11.1261 1.79041 11.1897 1.6767 11.2801 1.58628C11.3705 1.49586 11.4842 1.43225 11.6086 1.40251L11.6072 1.40389ZM2.42308 9.69156H5.88462C6.20169 9.69156 6.47446 9.69156 6.71538 9.74833C7.08835 9.83744 7.42936 10.0281 7.70063 10.2991C7.97191 10.5701 8.16285 10.9109 8.25231 11.2837C8.30769 11.5247 8.30769 11.796 8.30769 12.1145V15.5757C8.30769 15.8928 8.30769 16.1655 8.25092 16.4064C8.1618 16.7794 7.97117 17.1204 7.70014 17.3916C7.42911 17.6629 7.08827 17.8538 6.71538 17.9432C6.47446 17.9986 6.20308 17.9986 5.88462 17.9986H2.42308C2.106 17.9986 1.83323 17.9986 1.59231 17.9418C1.21934 17.8527 0.878331 17.6621 0.607058 17.3911C0.335785 17.1201 0.144841 16.7793 0.0553846 16.4064C-5.15809e-08 16.1655 0 15.8942 0 15.5757V12.1145C0 11.7974 1.03162e-08 11.5247 0.0567692 11.2837C0.14589 10.9108 0.336526 10.5698 0.607555 10.2986C0.878583 10.0273 1.21942 9.83639 1.59231 9.74694C1.83323 9.69156 2.10462 9.69156 2.42308 9.69156ZM2.49231 11.0761C2.06585 11.0761 1.97446 11.0802 1.91492 11.0955C1.79054 11.1252 1.67683 11.1888 1.5864 11.2792C1.49597 11.3696 1.43236 11.4834 1.40262 11.6077C1.39015 11.6645 1.38462 11.7559 1.38462 12.1837V15.5065C1.38462 15.9329 1.38877 16.0243 1.404 16.0838C1.43374 16.2082 1.49736 16.3219 1.58779 16.4123C1.67822 16.5028 1.79193 16.5664 1.91631 16.5961C1.97446 16.61 2.06585 16.6141 2.49231 16.6141H5.81538C6.24185 16.6141 6.33323 16.6086 6.39277 16.5947C6.51715 16.565 6.63086 16.5014 6.72129 16.4109C6.81172 16.3205 6.87533 16.2068 6.90508 16.0825C6.91892 16.0243 6.92308 15.9329 6.92308 15.5065V12.1837C6.92308 11.7572 6.91892 11.6659 6.90369 11.6063C6.87395 11.482 6.81033 11.3683 6.7199 11.2778C6.62948 11.1874 6.51576 11.1238 6.39139 11.0941C6.33462 11.0816 6.24323 11.0761 5.81538 11.0761H2.49231ZM12.1846 9.69156H12.1154C11.7983 9.69156 11.5255 9.69156 11.2846 9.74833C10.9116 9.83744 10.5706 10.0281 10.2994 10.2991C10.0281 10.5701 9.83715 10.9109 9.74769 11.2837C9.69231 11.5247 9.69231 11.796 9.69231 12.1145V15.5757C9.69231 15.8928 9.69231 16.1655 9.74908 16.4064C9.8382 16.7794 10.0288 17.1204 10.2999 17.3916C10.5709 17.6629 10.9117 17.8538 11.2846 17.9432C11.5255 18 11.7983 18 12.1154 18H15.5769C15.894 18 16.1668 18 16.4077 17.9432C16.7804 17.8539 17.1211 17.6632 17.3921 17.3922C17.6631 17.1212 17.8539 16.7805 17.9432 16.4078C18 16.1669 18 15.8942 18 15.5771V12.1145C18 11.7974 18 11.5247 17.9432 11.2837C17.8541 10.9108 17.6635 10.5698 17.3924 10.2986C17.1214 10.0273 16.7806 9.83639 16.4077 9.74694C16.1668 9.69156 15.8954 9.69156 15.5769 9.69156H12.1846ZM11.6072 11.0955C11.6668 11.0816 11.7595 11.0761 12.1846 11.0761H15.5077C15.9342 11.0761 16.0255 11.0802 16.0851 11.0955C16.2095 11.1252 16.3232 11.1888 16.4136 11.2792C16.504 11.3696 16.5676 11.4834 16.5974 11.6077C16.6112 11.6659 16.6154 11.7572 16.6154 12.1837V15.5065C16.6154 15.9329 16.6098 16.0243 16.596 16.0838C16.5663 16.2082 16.5026 16.3219 16.4122 16.4123C16.3218 16.5028 16.2081 16.5664 16.0837 16.5961C16.0255 16.61 15.9342 16.6141 15.5077 16.6141H12.1846C11.7582 16.6141 11.6668 16.6086 11.6072 16.5947C11.4829 16.565 11.3691 16.5014 11.2787 16.4109C11.1883 16.3205 11.1247 16.2068 11.0949 16.0825C11.0825 16.0257 11.0769 15.9343 11.0769 15.5065V12.1837C11.0769 11.7572 11.0811 11.6659 11.0963 11.6063C11.1261 11.482 11.1897 11.3683 11.2801 11.2778C11.3705 11.1874 11.4842 11.1238 11.6086 11.0941L11.6072 11.0955Z"/>
</mask>
<path fill-rule="evenodd" clip-rule="evenodd" d="M2.49231 0H2.42308C2.106 0 1.83323 1.03154e-08 1.59231 0.0567649C1.21934 0.145879 0.878331 0.3365 0.607058 0.607508C0.335785 0.878516 0.144841 1.21933 0.0553846 1.59219C-5.15809e-08 1.83309 0 2.10445 0 2.42289V5.88416C0 6.20122 1.03162e-08 6.47396 0.0567692 6.71487C0.14589 7.0878 0.336526 7.42879 0.607555 7.70004C0.878583 7.97129 1.21942 8.16222 1.59231 8.25167C1.83323 8.30705 2.10462 8.30705 2.42308 8.30705H5.88462C6.20169 8.30705 6.47446 8.30705 6.71538 8.25029C7.08835 8.16117 7.42936 7.97055 7.70063 7.69955C7.97191 7.42854 8.16285 7.08772 8.25231 6.71487C8.30769 6.47396 8.30769 6.2026 8.30769 5.88416V2.42289C8.30769 2.10584 8.30769 1.83309 8.25092 1.59219C8.1618 1.21925 7.97117 0.878263 7.70014 0.607011C7.42911 0.335759 7.08827 0.14483 6.71538 0.0553803C6.47446 -5.1577e-08 6.20308 0 5.88462 0H2.49231ZM1.91492 1.40389C1.97446 1.39005 2.06723 1.38451 2.49231 1.38451H5.81538C6.24185 1.38451 6.33323 1.38866 6.39277 1.40389C6.51715 1.43363 6.63086 1.49724 6.72129 1.58767C6.81172 1.67809 6.87533 1.79179 6.90508 1.91616C6.91892 1.97431 6.92308 2.06569 6.92308 2.49212V5.81494C6.92308 6.24137 6.91892 6.33274 6.90369 6.39228C6.87395 6.51665 6.81033 6.63035 6.7199 6.72077C6.62948 6.81119 6.51576 6.8748 6.39139 6.90455C6.33462 6.91701 6.24323 6.92254 5.81538 6.92254H2.49231C2.06585 6.92254 1.97446 6.91839 1.91492 6.90316C1.79054 6.87342 1.67683 6.80981 1.5864 6.71939C1.49597 6.62896 1.43236 6.51526 1.40262 6.39089C1.39015 6.33413 1.38462 6.24275 1.38462 5.81494V2.49212C1.38462 2.06569 1.38877 1.97431 1.404 1.91478C1.43374 1.79041 1.49736 1.6767 1.58779 1.58628C1.67822 1.49586 1.79193 1.43225 1.91631 1.40251L1.91492 1.40389ZM12.1846 0H12.1154C11.7983 0 11.5255 1.03154e-08 11.2846 0.0567649C10.9116 0.145879 10.5706 0.3365 10.2994 0.607508C10.0281 0.878516 9.83715 1.21933 9.74769 1.59219C9.69231 1.83309 9.69231 2.10445 9.69231 2.42289V5.88416C9.69231 6.20122 9.69231 6.47396 9.74908 6.71487C9.8382 7.0878 10.0288 7.42879 10.2999 7.70004C10.5709 7.97129 10.9117 8.16222 11.2846 8.25167C11.5255 8.30705 11.7969 8.30705 12.1154 8.30705H15.5769C15.894 8.30705 16.1668 8.30705 16.4077 8.25029C16.7807 8.16117 17.1217 7.97055 17.3929 7.69955C17.6642 7.42854 17.8552 7.08772 17.9446 6.71487C18 6.47396 18 6.2026 18 5.88416V2.42289C18 2.10584 18 1.83309 17.9432 1.59219C17.8541 1.21925 17.6635 0.878263 17.3924 0.607011C17.1214 0.335759 16.7806 0.14483 16.4077 0.0553803C16.1668 -5.1577e-08 15.8954 0 15.5769 0H12.1846ZM11.6072 1.40389C11.6668 1.39005 11.7595 1.38451 12.1846 1.38451H15.5077C15.9342 1.38451 16.0255 1.38866 16.0851 1.40389C16.2095 1.43363 16.3232 1.49724 16.4136 1.58767C16.504 1.67809 16.5676 1.79179 16.5974 1.91616C16.6112 1.97431 16.6154 2.06569 16.6154 2.49212V5.81494C16.6154 6.24137 16.6098 6.33274 16.596 6.39228C16.5663 6.51665 16.5026 6.63035 16.4122 6.72077C16.3218 6.81119 16.2081 6.8748 16.0837 6.90455C16.0255 6.91839 15.9342 6.92254 15.5077 6.92254H12.1846C11.7582 6.92254 11.6668 6.91839 11.6072 6.90316C11.4829 6.87342 11.3691 6.80981 11.2787 6.71939C11.1883 6.62896 11.1247 6.51526 11.0949 6.39089C11.0825 6.33413 11.0769 6.24275 11.0769 5.81494V2.49212C11.0769 2.06569 11.0811 1.97431 11.0963 1.91478C11.1261 1.79041 11.1897 1.6767 11.2801 1.58628C11.3705 1.49586 11.4842 1.43225 11.6086 1.40251L11.6072 1.40389ZM2.42308 9.69156H5.88462C6.20169 9.69156 6.47446 9.69156 6.71538 9.74833C7.08835 9.83744 7.42936 10.0281 7.70063 10.2991C7.97191 10.5701 8.16285 10.9109 8.25231 11.2837C8.30769 11.5247 8.30769 11.796 8.30769 12.1145V15.5757C8.30769 15.8928 8.30769 16.1655 8.25092 16.4064C8.1618 16.7794 7.97117 17.1204 7.70014 17.3916C7.42911 17.6629 7.08827 17.8538 6.71538 17.9432C6.47446 17.9986 6.20308 17.9986 5.88462 17.9986H2.42308C2.106 17.9986 1.83323 17.9986 1.59231 17.9418C1.21934 17.8527 0.878331 17.6621 0.607058 17.3911C0.335785 17.1201 0.144841 16.7793 0.0553846 16.4064C-5.15809e-08 16.1655 0 15.8942 0 15.5757V12.1145C0 11.7974 1.03162e-08 11.5247 0.0567692 11.2837C0.14589 10.9108 0.336526 10.5698 0.607555 10.2986C0.878583 10.0273 1.21942 9.83639 1.59231 9.74694C1.83323 9.69156 2.10462 9.69156 2.42308 9.69156ZM2.49231 11.0761C2.06585 11.0761 1.97446 11.0802 1.91492 11.0955C1.79054 11.1252 1.67683 11.1888 1.5864 11.2792C1.49597 11.3696 1.43236 11.4834 1.40262 11.6077C1.39015 11.6645 1.38462 11.7559 1.38462 12.1837V15.5065C1.38462 15.9329 1.38877 16.0243 1.404 16.0838C1.43374 16.2082 1.49736 16.3219 1.58779 16.4123C1.67822 16.5028 1.79193 16.5664 1.91631 16.5961C1.97446 16.61 2.06585 16.6141 2.49231 16.6141H5.81538C6.24185 16.6141 6.33323 16.6086 6.39277 16.5947C6.51715 16.565 6.63086 16.5014 6.72129 16.4109C6.81172 16.3205 6.87533 16.2068 6.90508 16.0825C6.91892 16.0243 6.92308 15.9329 6.92308 15.5065V12.1837C6.92308 11.7572 6.91892 11.6659 6.90369 11.6063C6.87395 11.482 6.81033 11.3683 6.7199 11.2778C6.62948 11.1874 6.51576 11.1238 6.39139 11.0941C6.33462 11.0816 6.24323 11.0761 5.81538 11.0761H2.49231ZM12.1846 9.69156H12.1154C11.7983 9.69156 11.5255 9.69156 11.2846 9.74833C10.9116 9.83744 10.5706 10.0281 10.2994 10.2991C10.0281 10.5701 9.83715 10.9109 9.74769 11.2837C9.69231 11.5247 9.69231 11.796 9.69231 12.1145V15.5757C9.69231 15.8928 9.69231 16.1655 9.74908 16.4064C9.8382 16.7794 10.0288 17.1204 10.2999 17.3916C10.5709 17.6629 10.9117 17.8538 11.2846 17.9432C11.5255 18 11.7983 18 12.1154 18H15.5769C15.894 18 16.1668 18 16.4077 17.9432C16.7804 17.8539 17.1211 17.6632 17.3921 17.3922C17.6631 17.1212 17.8539 16.7805 17.9432 16.4078C18 16.1669 18 15.8942 18 15.5771V12.1145C18 11.7974 18 11.5247 17.9432 11.2837C17.8541 10.9108 17.6635 10.5698 17.3924 10.2986C17.1214 10.0273 16.7806 9.83639 16.4077 9.74694C16.1668 9.69156 15.8954 9.69156 15.5769 9.69156H12.1846ZM11.6072 11.0955C11.6668 11.0816 11.7595 11.0761 12.1846 11.0761H15.5077C15.9342 11.0761 16.0255 11.0802 16.0851 11.0955C16.2095 11.1252 16.3232 11.1888 16.4136 11.2792C16.504 11.3696 16.5676 11.4834 16.5974 11.6077C16.6112 11.6659 16.6154 11.7572 16.6154 12.1837V15.5065C16.6154 15.9329 16.6098 16.0243 16.596 16.0838C16.5663 16.2082 16.5026 16.3219 16.4122 16.4123C16.3218 16.5028 16.2081 16.5664 16.0837 16.5961C16.0255 16.61 15.9342 16.6141 15.5077 16.6141H12.1846C11.7582 16.6141 11.6668 16.6086 11.6072 16.5947C11.4829 16.565 11.3691 16.5014 11.2787 16.4109C11.1883 16.3205 11.1247 16.2068 11.0949 16.0825C11.0825 16.0257 11.0769 15.9343 11.0769 15.5065V12.1837C11.0769 11.7572 11.0811 11.6659 11.0963 11.6063C11.1261 11.482 11.1897 11.3683 11.2801 11.2778C11.3705 11.1874 11.4842 11.1238 11.6086 11.0941L11.6072 11.0955Z" fill="white" stroke="white" stroke-width="4" mask="url(#path-1-inside-1_206_2951)"/>
</svg>
