<svg width="18" height="16" viewBox="0 0 18 16" fill="none" xmlns="http://www.w3.org/2000/svg">
<path d="M16.2 0H2.7C1.2114 0 0 1.19644 0 2.66667V13.3333C0 14.8036 1.2114 16 2.7 16H16.2C17.1927 16 18 15.2027 18 14.2222V1.77778C18 0.797333 17.1927 0 16.2 0ZM2.7 14.2222C2.2032 14.2222 1.8 13.8231 1.8 13.3333V2.66667C1.8 2.17689 2.2032 1.77778 2.7 1.77778H16.2V4.44444H10.8C9.8073 4.44444 9 5.24178 9 6.22222V9.77778C9 10.7582 9.8073 11.5556 10.8 11.5556H16.2009V14.2222H2.7ZM16.2 6.22222V9.77778H10.8V6.22222H16.2Z" fill="white"/>
</svg>
